<svg version="1.0" xmlns="http://www.w3.org/2000/svg"
 width="300.000000pt" height="300.000000pt" viewBox="0 0 300.000000 300.000000"
 preserveAspectRatio="xMidYMid meet">

<g transform="translate(0.000000,300.000000) scale(0.100000,-0.100000)"
fill="#f5f5f5" stroke="none">
<path d="M1200 2809 c-164 -12 -309 -53 -464 -132 -334 -170 -570 -489 -643
-867 -21 -113 -21 -328 1 -440 74 -390 323 -715 671 -880 179 -85 335 -120
530 -120 252 1 485 58 659 162 43 26 86 49 95 50 16 3 48 -49 37 -60 -4 -3 -9
4 -13 17 -4 16 -8 19 -14 10 -4 -8 2 -20 17 -32 14 -11 23 -26 20 -33 -3 -8
-1 -26 4 -39 5 -14 11 -39 12 -55 2 -26 7 -30 48 -39 128 -28 338 -19 500 20
195 48 238 116 168 265 -25 53 -33 82 -33 126 0 51 3 60 34 92 40 41 44 86 11
121 -18 20 -20 30 -15 70 7 43 5 49 -23 78 -30 31 -52 74 -52 102 0 7 16 36
36 65 19 28 38 66 41 84 5 31 0 37 -103 128 -60 52 -129 117 -154 144 -44 47
-47 54 -69 163 -28 140 -40 180 -96 299 -62 131 -126 222 -234 334 -256 266
-595 394 -971 367z m830 -319 c0 -5 -2 -10 -4 -10 -3 0 -8 5 -11 10 -3 6 -1
10 4 10 6 0 11 -4 11 -10z m118 -107 c12 -13 22 -28 22 -33 0 -6 -27 17 -60
51 -33 33 -60 63 -60 66 0 6 66 -51 98 -84z m62 -75 c0 -6 -7 -5 -15 2 -8 7
-15 17 -15 22 0 6 7 5 15 -2 8 -7 15 -17 15 -22z m-749 -104 c213 -63 376
-220 445 -429 24 -74 25 -90 21 -210 -4 -117 -7 -137 -35 -203 -68 -162 -174
-278 -317 -347 -75 -36 -214 -69 -229 -55 -8 8 -76 293 -220 924 -31 137 -56
260 -54 275 2 21 12 29 53 43 69 23 261 24 336 2z m-1076 -1331 l18 -28 -21
19 c-12 11 -22 23 -22 28 0 14 7 9 25 -19z m125 -133 c83 -80 101 -111 25 -45
-74 65 -94 86 -117 118 -28 40 -13 28 92 -73z"/>
</g>
</svg>